<?xml version="1.0" encoding="UTF-8"?>
<svg xmlns="http://www.w3.org/2000/svg" xmlns:xlink="http://www.w3.org/1999/xlink" width="18px" height="16px" viewBox="0 0 18 16" version="1.1">
<g id="surface1">
<path style=" stroke:none;fill-rule:nonzero;fill:rgb(11.372549%,77.254902%,80.784314%);fill-opacity:1;" d="M 13.320312 9.195312 C 13.285156 9.179688 11.972656 8.605469 11.738281 8.53125 C 11.644531 8.5 11.542969 8.46875 11.433594 8.46875 C 11.253906 8.46875 11.105469 8.546875 10.992188 8.703125 C 10.859375 8.875 10.464844 9.289062 10.339844 9.410156 C 10.324219 9.425781 10.300781 9.445312 10.289062 9.445312 C 10.277344 9.445312 10.074219 9.371094 10.011719 9.347656 C 8.605469 8.804688 7.535156 7.5 7.390625 7.277344 C 7.371094 7.246094 7.367188 7.230469 7.367188 7.230469 C 7.375 7.214844 7.421875 7.171875 7.445312 7.152344 C 7.515625 7.089844 7.59375 7.003906 7.667969 6.925781 C 7.703125 6.886719 7.738281 6.847656 7.773438 6.8125 C 7.882812 6.699219 7.933594 6.613281 7.988281 6.511719 L 8.019531 6.460938 C 8.15625 6.21875 8.039062 6.015625 8 5.949219 C 7.96875 5.894531 7.414062 4.703125 7.355469 4.578125 C 7.214844 4.277344 7.027344 4.136719 6.765625 4.136719 C 6.742188 4.136719 6.765625 4.136719 6.664062 4.140625 C 6.542969 4.144531 5.871094 4.222656 5.574219 4.390625 C 5.257812 4.566406 4.726562 5.128906 4.726562 6.117188 C 4.726562 7.007812 5.363281 7.847656 5.636719 8.167969 C 5.640625 8.175781 5.65625 8.191406 5.671875 8.214844 C 6.71875 9.570312 8.019531 10.578125 9.339844 11.046875 C 10.609375 11.496094 11.210938 11.546875 11.554688 11.546875 C 11.699219 11.546875 11.8125 11.539062 11.914062 11.53125 L 11.980469 11.523438 C 12.417969 11.488281 13.382812 11.046875 13.601562 10.503906 C 13.773438 10.074219 13.820312 9.609375 13.707031 9.441406 C 13.625 9.324219 13.492188 9.265625 13.320312 9.195312 Z M 13.320312 9.195312 "/>
<path style=" stroke:none;fill-rule:nonzero;fill:rgb(11.372549%,77.254902%,80.784314%);fill-opacity:1;" d="M 9.160156 0 C 4.285156 0 0.320312 3.5 0.320312 7.800781 C 0.320312 9.191406 0.738281 10.550781 1.53125 11.742188 L 0.0117188 15.726562 C -0.015625 15.800781 0.00390625 15.882812 0.0664062 15.9375 C 0.113281 15.976562 0.171875 16 0.234375 16 C 0.257812 16 0.28125 15.996094 0.304688 15.988281 L 4.976562 14.671875 C 6.253906 15.277344 7.699219 15.597656 9.160156 15.597656 C 14.035156 15.597656 18 12.101562 18 7.800781 C 18 3.5 14.035156 0 9.160156 0 Z M 9.160156 13.972656 C 7.785156 13.972656 6.453125 13.621094 5.304688 12.953125 C 5.269531 12.929688 5.222656 12.917969 5.179688 12.917969 C 5.15625 12.917969 5.128906 12.921875 5.105469 12.929688 L 2.769531 13.589844 L 3.523438 11.609375 C 3.546875 11.542969 3.535156 11.472656 3.488281 11.417969 C 2.617188 10.359375 2.15625 9.109375 2.15625 7.800781 C 2.15625 4.394531 5.296875 1.625 9.160156 1.625 C 13.019531 1.625 16.160156 4.394531 16.160156 7.800781 C 16.160156 11.203125 13.019531 13.972656 9.160156 13.972656 Z M 9.160156 13.972656 "/>
</g>
</svg>
